/* XPM */
static char *_5f151020d2341ebf611f9841b9ea1bbl1dmEA6qF8ZctPs4[] = {
/* columns rows colors chars-per-pixel */
"75 75 210 2 ",
"   c None",
".  c black",
"X  c #130905",
"o  c #260A00",
"O  c #271500",
"+  c #291700",
"@  c #241B0C",
"#  c #2E110B",
"$  c #382708",
"%  c #2A2216",
"&  c #2B231A",
"*  c #362A17",
"=  c #352911",
"-  c #35312D",
";  c #4E0906",
":  c #590000",
">  c #6E0000",
",  c #4D3A1D",
"<  c #463417",
"1  c #513D1E",
"2  c #52371D",
"3  c #462A0F",
"4  c #4F3C20",
"5  c #48392C",
"6  c #523E22",
"7  c #473C36",
"8  c #53302A",
"9  c #682E18",
"0  c #564123",
"q  c #594425",
"w  c #52412A",
"e  c #5D462A",
"r  c #5E482B",
"t  c #4A4239",
"y  c #574738",
"u  c #624A2D",
"i  c #664D32",
"p  c #684B37",
"a  c #674C3A",
"s  c #6A5135",
"d  c #6E5439",
"f  c #71563A",
"g  c #75593D",
"h  c #3F4547",
"j  c #464544",
"k  c #4A4A49",
"l  c #534E4C",
"z  c #574D46",
"x  c #53514F",
"c  c #5B524C",
"v  c #5B5247",
"b  c #535353",
"n  c #5A5959",
"m  c #634E41",
"M  c #725445",
"N  c #7A5D41",
"B  c #7B5D4B",
"V  c #745749",
"C  c #635C54",
"Z  c #645F5B",
"A  c #60564D",
"S  c #7F6146",
"D  c #6A635B",
"F  c #62605E",
"G  c #786256",
"H  c #666666",
"J  c #6B6B6B",
"K  c #6B6864",
"L  c #726B66",
"P  c #736E6A",
"I  c #77736D",
"U  c #757574",
"Y  c #7D7C7B",
"T  c #7B7774",
"R  c #8C0704",
"E  c #B00B06",
"W  c #9C2221",
"Q  c #9C2C24",
"!  c #DB0303",
"~  c #C50202",
"^  c #F60909",
"/  c #D73030",
"(  c #FA292A",
")  c #FD3938",
"_  c #9B4848",
"`  c #84644B",
"'  c #86664B",
"]  c #836554",
"[  c #8D6B51",
"{  c #8C6D5B",
"}  c #916E55",
"|  c #926E59",
" . c #947156",
".. c #9A765A",
"X. c #9A755A",
"o. c #A17A5F",
"O. c #8B7266",
"+. c #9A7765",
"@. c #847C77",
"#. c #947C7C",
"$. c #A57E63",
"%. c #B16F6F",
"&. c #FD4848",
"*. c #FD5858",
"=. c #EF4E4D",
"-. c #FC6464",
";. c #FB7473",
":. c #FA7B7B",
">. c #EE6B6A",
",. c #CC5F5F",
"<. c #83807F",
"1. c #988277",
"2. c #AD846A",
"3. c #A98165",
"4. c #B1876D",
"5. c #B68B6F",
"6. c #B88D6F",
"7. c #B58A71",
"8. c #BA8D72",
"9. c #BE9176",
"0. c #C5967A",
"q. c #CA9A7D",
"w. c #C29577",
"e. c #FA807F",
"r. c #FEEF4E",
"t. c #FEEF50",
"y. c #FEF071",
"u. c #2A3581",
"i. c #828181",
"p. c #8C8B89",
"a. c #908E8C",
"s. c #988D88",
"d. c #97918E",
"f. c #949493",
"g. c #999694",
"h. c #9B9896",
"j. c #9C9C9C",
"k. c #B79889",
"l. c #A39B98",
"z. c #B19A93",
"x. c #A4A3A3",
"c. c #ADADAD",
"v. c #ABA8A5",
"b. c #B5ABA8",
"n. c #B3B0AF",
"m. c #B4B4B3",
"M. c #BCBCBC",
"N. c #B9B6B4",
"B. c #CD9D82",
"V. c #D09F82",
"C. c #FA8585",
"Z. c #F79998",
"A. c #CAA18A",
"S. c #D5A385",
"D. c #D9A688",
"F. c #DEAA8B",
"G. c #D8A687",
"H. c #DAAC94",
"J. c #E3AD8E",
"K. c #E7B191",
"L. c #EBB494",
"P. c #F0B897",
"I. c #F4BB9A",
"U. c #F9BE9D",
"Y. c #F0B797",
"T. c #EFA998",
"R. c #D4B8AB",
"E. c #C0BEBC",
"W. c #C9B4B2",
"Q. c #CFA8A2",
"!. c #F6A9A8",
"~. c #F4B9B8",
"^. c #FCC09F",
"/. c #FCF08F",
"(. c #FDF192",
"). c #FBEF8D",
"_. c #C3C0BF",
"`. c #FFC3A1",
"'. c #FDC8AC",
"]. c #F8C4A8",
"[. c #F7C7B8",
"{. c #FBF2B4",
"}. c #FAF3BD",
"|. c #FBF2A7",
" X c #C4C2C1",
".X c #CAC6C4",
"XX c #CDCBCA",
"oX c #CAC8C7",
"OX c #D1CBC9",
"+X c #D3D3D2",
"@X c #DDDDDC",
"#X c #D9D5D4",
"$X c #F2CAC8",
"%X c #F5D5C9",
"&X c #F1D2C4",
"*X c #E2DEDD",
"=X c #EEDCDB",
"-X c #E9D6D6",
";X c #F2D8D3",
":X c #E9C5C4",
">X c #FAF3C5",
",X c #EFE2DD",
"<X c #E0E0DF",
"1X c #F0E2DC",
"2X c #F9F4D2",
"3X c #F8F4D9",
"4X c #E3E2E2",
"5X c #EBE5E4",
"6X c #ECE8E7",
"7X c #EDE9E8",
/* pixels */
"u.u.u.u.u.u.u.u.u.u.u.u.u.u.u.u.u.u.u.u.u.u.u.u.u.u.u.u.u.u.u.u.u.u.u.u.u.u.u.u.u.u.u.u.u.u.u.u.u.u.u.u.u.u.u.u.u.u.u.u.u.u.u.u.u.u.u.u.u.u.u.u.u.u.u.",
"u.u.u.u.u.u.u.u.u.u.u.u.u.u.u.u.u.u.u.u.u.u.u.u.u.u.u.u.u.u.u.u.u.u.u.u.u.u.u.u.u.u.u.u.u.u.u.u.u.u.u.u.u.u.u.u.u.u.u.u.u.u.u.u.u.u.u.u.u.u.u.u.u.u.u.",
"u.u.u.u.u.u.u.u.u.u.u.u.u.u.u.u.u.u.u.u.u.u.u.u.u.u.u.u.u.u.u.u.u.u.u.u.u.u.u.u.u.u.u.u.u.u.u.u.u.u.u.u.u.u.u.u.u.u.u.u.u.u.u.u.u.u.u.u.u.u.u.u.u.u.u.",
"u.u.u.u.u.u.u.u.u.u.u.u.u.u.u.u.u.u.u.u.u.u.u.u.u.u.u.u.u.u.u.u.u.u.u.u.u.u.u.u.u.u.u.u.u.u.u.u.u.u.u.u.u.u.u.u.u.u.u.u.u.u.u.u.u.u.u.u.u.u.u.u.u.u.u.",
"u.u.u.u.u.u.u.u.u.u.u.u.u.u.u.u.u.u.u.u.u.u.u.u.u.u.u.  2X2X2X2X2X2X2X2X2X2X2X2X2X2X2X2X2X2X2X2X2X2X2X3X  u.u.u.u.u.u.u.u.u.u.u.u.u.u.u.u.u.u.u.u.u.u.",
"u.u.u.u.u.u.u.u.u.u.u.u.u.u.u.u.u.u.u.u.u.u.u.u.u.u.u.2X(././././.(./.(././.(.(./.(.(./.(.(./.(.(.(.(.{.2Xu.u.u.u.u.u.u.u.u.u.u.u.u.u.u.u.u.u.u.u.u.u.",
"u.u.u.u.u.u.u.u.u.u.u.u.u.u.u.u.u.u.u.u.u.u.u.u.u.u.u.>Xy.r.r.r.t.t.t.t.t.t.t.t.r.t.t.r.r.t.t.t.r.t.r.y.>X  u.u.u.u.u.u.u.u.u.u.u.u.u.u.u.u.u.u.u.u.u.",
"u.u.u.u.u.u.u.u.u.u.u.u.u.u.u.u.u.u.u.u.u.u.u.u.u.u.u.3X{.{.{.{.{.{.{.{.{.{.{.{.{.{.{.{.{.{.{.{.{.{.{.}.3Xu.u.u.u.u.u.u.u.u.u.u.u.u.u.u.u.u.u.u.u.u.u.",
"u.u.u.u.u.u.u.u.u.u.u.u.u.u.u.u.u.u.u.u.u.u.u.u.u.u.u.u.u.u.u.u.u.u.u.u.u.u.u.u.u.u.u.u.u.u.u.u.u.u.u.u.u.u.u.u.u.u.u.u.u.u.u.u.u.u.u.u.u.u.u.u.u.u.u.",
"u.u.u.u.u.u.u.u.u.u.u.u.u.u.u.u.u.u.u.u.u.u.u.u.u.u.u.u.u.u.u.u.u.u.u.u.u.u.u.u.u.u.u.u.u.u.u.u.u.u.u.u.u.u.u.u.u.u.u.u.u.u.u.u.u.u.u.u.u.u.u.u.u.u.u.",
"u.u.u.u.u.u.u.u.u.u.u.u.u.u.u.u.u.u.u.u.u.u.u.u.u.u.u.u.u.u.u.u.u.u.u.u.u.u.u.u.u.u.u.u.u.u.u.u.u.u.u.u.u.u.u.u.u.u.u.u.u.u.u.u.u.u.u.u.u.u.u.u.u.u.u.",
"u.u.u.u.u.u.u.u.u.u.u.u.u.u.u.u.u.u.u.u.u.u.u.u.u.u.u.u.u.u.u.u.u.u.u.u.u.  u.u.u.u.u.u.u.u.u.u.u.u.u.u.u.u.u.u.u.u.u.u.u.u.u.u.u.u.u.u.u.u.u.u.u.u.u.",
"u.u.u.u.u.u.u.u.u.u.u.u.u.u.u.u.u.u.u.u.u.u.u.u.u.u.u.u.u.4XXXm.n.n.c.c.c.c.c.c.n.c.c.c.c.c.c.c.m.E.4Xu.u.u.u.u.u.u.u.u.u.u.u.u.u.u.u.u.u.u.u.u.u.u.u.",
"u.u.u.u.u.u.u.u.u.u.u.u.u.u.u.u.u.u.u.u.u.u.u.u.u.u.u.u.u.@Xn.U H H J H J J H H J J H H H J J H U j.@Xu.u.u.u.u.u.u.u.u.u.u.u.u.u.u.u.u.u.u.u.u.u.u.u.",
"u.u.u.u.u.u.u.u.u.u.u.u.u.u.u.u.u.u.u.u.u.u.u.u.u.u.u.u.@X Xg.- @ & & % & & % % & % % % & % % % t T M.4Xu.u.u.u.u.u.u.u.u.u.u.u.u.u.u.u.u.u.u.u.u.u.u.",
"u.u.u.u.u.u.u.u.u.u.u.u.u.u.u.u.u.u.u.u.u.u.u.u.u.u.u. XY K C 0 1 1 1 0 0 , 0 , 0 0 4 w w 0 4 4 w y H f.oXu.u.u.u.u.u.u.u.u.u.u.u.u.u.u.u.u.u.u.u.u.u.",
"u.u.u.u.u.u.u.u.u.u.u.u.u.u.u.u.u.u.u.u.u.u.u.u.u.4X@Xx.- o < q q r s ' ' g u s ' [ [ [ [ [ [ g e , O Z c.+X  u.u.u.u.u.u.u.u.u.u.u.u.u.u.u.u.u.u.u.u.",
"u.u.u.u.u.u.u.u.u.u.u.u.u.u.u.u.u.u.u.u.u.u.u.u.4X Xc.p.t < , q q u S 2.6...f S 2.9.0.w.w.w.w. .i w < c a.x.oXu.u.u.u.u.u.u.u.u.u.u.u.u.u.u.u.u.u.u.u.",
"u.u.u.u.u.u.u.u.u.u.u.u.u.u.u.u.u.u.u.u.u.u.u.u.+Xa.H z 0 q q q q f ..G.K.6.'  .G.L.I.I.P.P.Y.6.g u q y c x f.4Xu.u.u.u.u.u.u.u.u.u.u.u.u.u.u.u.u.u.u.",
"u.u.u.u.u.u.u.u.u.u.u.u.u.u.u.u.u.u.u.u.u.u.4X+Xc.J 5 $ q g  .3.3.3.9.L.^.G.6.9.P.^.`.`.`.`.U.G.2...g 1 3 O J M.XX<Xu.u.u.u.u.u.u.u.u.u.u.u.u.u.u.u.u.",
"u.u.u.u.u.u.u.u.u.u.u.u.u.u.u.u.u.u.u.u.u.u.XXx.U v w , u  .8.G.J.F.K.^.^.^.J.J.^.^.^.^.`.`.].Y.F.q. .0 1 < c Y f.M.u.u.u.u.u.u.u.u.u.u.u.u.u.u.u.u.u.",
"u.u.u.u.u.u.u.u.u.u.u.u.u.u.u.u.u.u.u.u.u.   XU 5 w 0 0 i o.q.I.^.^.^.^.`.^.^.^.^.^.^.^.`.`.].U.I.J.3.q q 0 w t H c.u.u.u.u.u.u.u.u.u.u.u.u.u.u.u.u.u.",
"u.u.u.u.u.u.u.u.u.u.u.u.u.u.u.u.u.u.u.u.u.  M.J O , q 0 i o.S.^.`.^.^.^.`.`.`.`.`.`.`.`.`.`.`.`.^.K.3.0 q q , @ b x.u.u.u.u.u.u.u.u.u.u.u.u.u.u.u.u.u.",
"u.u.u.u.u.u.u.u.u.u.u.u.u.u.u.u.u.u.u.u.u.  M.J + 1 q u N 3.G.^.^.^.^.^.`.`.^.`.`.`.`.`.U.U.U.U.^.J.3.0 q q , & b x.u.u.u.u.u.u.u.u.u.u.u.u.u.u.u.u.u.",
"u.u.u.u.u.u.u.u.u.u.u.u.u.u.u.u.u.u.u.u.u.  M.J + 6 r ` 2.0.K.^.^.q.H.^.^.^.^.`.`.`.`.`.L.J.V.L.^.J.3.q q q , % n x.u.u.u.u.u.u.u.u.u.u.u.u.u.u.u.u.u.",
"u.u.u.u.u.u.u.u.u.u.u.u.u.u.u.u.u.u.u.u.u.  M.J + 6 s 3.D.K.I.I.q.2.6.J.^.^.`.`.`.`.`.`.F.7.$.V.L.J.3.0 q 1 < % b x.u.u.u.u.u.u.u.u.u.u.u.u.u.u.u.u.u.",
"u.u.u.u.u.u.u.u.u.u.u.u.u.            u.u.  M.J + 0 d 9.^.`.`.I.9. .3.H.`.`.`.`.`.`.`.U.G.$.G q.L.K.3.q f N d - n x.u.u.u.u.u.u.u.u.u.u.u.u.u.u.u.u.u.",
"u.u.u.u.u.u.u.u.u.u.u.u.#Xv.v.v.v.v.v.N.    M.J O 0 f 9.^.`.`.^.J.q.S.^.`.`.`.`.`.`.`.`.L.S.q.J.I.J.3.f 3.w.4.y b x.u.u.u.u.u.u.u.u.u.u.u.u.u.u.u.u.u.",
"u.u.u.u.u.u.u.u.u.u.u.u..XP D D D D D p.@X  M.J O w f 9.^.`.`.`.U.I.I.`.'.^.^.'.`.`.`.`.^.I.P.^.^.J.3.` 6.K.q.a b x.u.u.u.u.u.u.u.u.u.u.u.u.u.u.u.u.u.",
"u.u.u.u.u.u.u.u.u.u.u.u.M.z v L I C 4 I @X  M.J + 6 d 4.K.I.U.`.I.L.K.K.L.L.L.L.L.L.L.K.K.K.L.^.^.J.o.' w.P.K.S b f.+Xu.u.u.u.u.u.u.u.u.u.u.u.u.u.u.u.",
"u.u.u.u.u.u.u.u.u.u.u.u.M.A p._.+Xh.A I @X  M.J + 4 e f  .6.F.I.q.+.{ S B S S S B B B B ' ' X.q.P.L.3.' q.^.J.S t b U c.+Xu.u.u.u.u.u.u.u.u.u.u.u.u.u.",
"u.u.u.u.u.u.u.u.u.u.u.u.M.D g.+Xu.M.a.h.@X  M.J + 4 0 1 r  .0.F.2.g r a M M M M M M M M a q u 6.F.q...N 6.J.q.' 1 $ @ f.+Xu.u.u.u.u.u.u.u.u.u.u.u.u.u.",
"u.u.u.u.u.u.u.u.u.u.u.u.E.C d.+Xu.+X_.oXu.  M.H + 4 q q r ` 3.7.X.g ` 3.9.9.9.9.w.w.8.8.$.` s ..6.5.' f ..6.4.g 1 $ - h.+Xu.u.u.u.u.u.u.u.u.u.u.u.u.u.",
"u.u.u.u.u.u.u.u.u.u.u.u.N.D g.+Xu.u.u.u.u.  M.J + , 0 q q u f N s d  .S.P.P.P.P.P.P.Y.L.q. .i s g g i u f g g r q < - f.+Xu.u.u.u.u.u.u.u.u.u.u.u.u.u.",
"u.u.u.u.u.u.u.u.u.u.u.u.E.c <.v.+X  u.u.u.  M.J + 4 q q q q 0 0 0 i ' w.G.S.G.G.S.G.G.S.5.[ u 1 0 0 0 0 0 0 1 5 y J f.E.@Xu.u.u.u.u.u.u.u.u.u.u.u.u.u.",
"u.u.u.u.u.u.u.u.u.u.u.u.E.y z D d.XXu.u.u.  M.J + 4 q q q q q q q q d '  . . .}  . .} } ` p u 0 0 q q q q q 1 * b a.XX4Xu.u.u.u.u.u.u.u.u.u.u.u.u.u.u.",
"u.u.u.u.u.u.u.u.u.u.u.u.N.z 5 t I .Xu.u.u.  E.J + 4 q q q q q q 6 6 6 u i u i s i i i i u u q 6 0 u q q q q , & b j.4Xu.u.u.u.u.u.u.u.u.u.u.u.u.u.u.u.",
"u.u.u.u.u.u.u.u.u.u.u.u.@Xm.l.I K _.u.u.u.  M.J + 4 q q q 6 4 * < < * $ $ $ $ = = = $ $ $ $ $ $ $ 3 1 q q q , & b x.u.u.u.u.u.u.u.u.u.u.u.u.u.u.u.u.u.",
"u.u.u.u.u.u.u.u.u.u.u.u.u.u.+Xh.L _.u.u.u.  M.J + 4 q q w 1 3 ; ; ; 8 7 j 7 7 5 8 7 7 j j j k k t t y 1 q q , & n x.u.u.u.u.u.u.u.u.u.u.u.u.u.u.u.u.u.",
"u.u.u.u.u.u.u.u.u.u.u.u.u.u.+Xf.L  Xu.u.u.  M.J + , 0 4 4 9 R E R W _ #.a.1.+.$.+.$.1.a.a.a.a.a.a.<.D , 0 q , & b x.u.u.u.u.u.u.u.u.u.u.u.u.u.u.u.u.u.",
"u.u.u.u.u.u.u.u.u.u.u.u.u.u.+Xf.L .Xu.u.u.  _.J + 6 6 , 3 R E ! ! / >.W..XR.H.J.D.F.R..XoXoXoXoX.XN.T = < 0 < O b j.u.u.u.u.u.u.u.u.u.u.u.u.u.u.u.u.u.",
"u.u.u.u.u.u.u.u.u.u.u.u.u.u.+Xh.D N.@X4X  +Xc.H O < , * # > E ^ ^ ) ;.~.%X%X[.'.'.[.%X5X5X6X5X*X#X Xs.a y w y n i.m.u.u.u.u.u.u.u.u.u.u.u.u.u.u.u.u.u.",
"u.u.u.u.u.u.u.u.u.u.u.u.u.u.+Xg.c Y f.j.j.p.U h X = % @ o : R E ! ( =.C.Z.~.%X;X;X;X=X5X6X7X5XE.l.l.k.8.| u J m.oX@Xu.u.u.u.u.u.u.u.u.u.u.u.u.u.u.u.u.",
"u.u.u.u.u.u.u.u.u.u.u.u.u.u.+Xg.t 7 k k h h h . . . . . . o o > ~ ^ ( ) :.!.;X7X7X1X5X7X7X7X4Xc.K O.V.J.$.p Y +Xu.u.u.u.u.u.u.u.u.u.u.u.u.u.u.u.u.u.u.",
"u.u.u.u.u.u.u.u.u.u.u.u.u.u.+Xh.t a V B G B B B B B B B V m 8 8 ,.=.*.) *.Z.~.=X1X7X6X6X6X6X4Xx.c ] V.Y.7.i i.@Xu.u.u.u.u.u.u.u.u.u.u.u.u.u.u.u.u.u.u.",
"u.u.u.u.u.u.u.u.u.u.u.u.u.u.+Xf.v 7.D.K.K.K.K.K.K.K.K.K.T.0.] z v.:X~.:.( &.-.Z.%X5X6X6X6X6X=Xx.z ] D.Y.7.i i.<Xu.u.u.u.u.u.u.u.u.u.u.u.u.u.u.u.u.u.u.",
"u.u.u.u.u.u.u.u.u.u.u.u.u.u.+Xf.a 7.H.K.L.L.L.L.L.L.L.L.J.q.{ c n.#X-XZ.-.&.^ ;.~.;X=X5X6X7X4Xx.c ] V.I.7.a i.@Xu.u.u.u.u.u.u.u.u.u.u.u.u.u.u.u.u.u.u.",
"u.u.u.u.u.u.u.u.u.u.u.u.u.u.+Xh.y | 4.7.8.8.8.8.8.8.8.8.4.$.M l n.-X;X~.Z.e.&.*.Z.!.$X5X6X6X4Xx.c { V.Y.7.y i.@Xu.u.u.u.u.u.u.u.u.u.u.u.u.u.u.u.u.u.u.",
"u.u.u.u.u.u.u.u.u.u.u.u.u.u.+Xh.t 5 a m m m m m m m m m v t * k n.@X5X=X$XZ.-.( *.:.!.=X7X7X4Xx.c ] V.T.7.p i.<Xu.u.u.u.u.u.u.u.u.u.u.u.u.u.u.u.u.u.u.",
"u.u.u.u.u.u.u.u.u.u.u.u.u.u.+Xh.c Y j.j.j.j.j.j.x.j.x.j.j.i.F x n.@X6X7X=X$X!.e.&.&.e.~.$X=X*Xx.c ] D.Y.4.a i.@Xu.u.u.u.u.u.u.u.u.u.u.u.u.u.u.u.u.u.u.",
"u.u.u.u.u.u.u.u.u.u.u.u.u.u.+Xh.D n.+X*X<X@X<X<X<X@X@X4X@XM.a.b n.*X6X6X7X=X-X~.;.) &.-.!.$X5Xx.c ] D.Y.7.p i.<Xu.u.u.u.u.u.u.u.u.u.u.u.u.u.u.u.u.u.u.",
"u.u.u.u.u.u.u.u.u.u.u.u.u.u.+Xh.L E.  u.u.u.u.u.u.u.u.u.u.+Xj.n n.-X5X7X6X6X5X$XC.&.( &.Z.$X*Xx.z ] D.Y.7.a i.@Xu.u.u.u.u.u.u.u.u.u.u.u.u.u.u.u.u.u.u.",
"u.u.u.u.u.u.u.u.u.u.u.u.u.u.+Xf.L .Xu.u.u.u.u.u.u.u.u.u.u.+Xj.b n.@X6X7X6X6X6X=X~.!.e.) -.C.!.%.8 ] G.L.7.p <.@Xu.u.u.u.u.u.u.u.u.u.u.u.u.u.u.u.u.u.u.",
"u.u.u.u.u.u.u.u.u.u.u.u.u.u.+Xg.L  Xu.u.u.u.u.u.u.u.u.u.u.@Xx.J n.#X4X6X6X6X6X6X7X=X~.-.) ( ( Q V O.S.T.7.G a.*Xu.u.u.u.u.u.u.u.u.u.u.u.u.u.u.u.u.u.u.",
"u.u.u.u.u.u.u.u.u.u.u.u.u.u.+Xg.L  Xu.u.u.u.u.u.u.u.u.u.u.@X Xx.n.E.XX*X6X6X6X6X7X=X$XZ.>.=./ %.g.z.A.V.z.l.N.u.u.u.u.u.u.u.u.u.u.u.u.u.u.u.u.u.u.u.u.",
"u.u.u.u.u.u.u.u.u.u.u.u.u.u.+Xg.L  Xu.u.u.u.u.u.u.u.u.u.u.u.<X+Xn.j.v.#X7X6X6X6X7X5X=X~.Q.%._ z..X_.l.#.b.oX@Xu.u.u.u.u.u.u.u.u.u.u.u.u.u.u.u.u.u.u.u.",
"u.u.u.u.u.u.u.u.u.u.u.u.u.u.+Xg.L  Xu.u.u.u.u.u.u.u.u.u.u.u.u.u.c.U i.OX7X7X7X7X6X6X7X5XE.<.b m.4X@Xx.a.oX  u.u.u.u.u.u.u.u.u.u.u.u.u.u.u.u.u.u.u.u.u.",
"u.u.u.u.u.u.u.u.u.u.u.u.u.u.+Xg.L  Xu.u.u.u.u.u.u.u.u.u.u.u.u.u.c.J i.XX7X7X6X6X6X6X7X<X_.<.b m.  u.@X+X4Xu.u.u.u.u.u.u.u.u.u.u.u.u.u.u.u.u.u.u.u.u.u.",
"u.u.u.u.u.u.u.u.u.u.u.u.u.u.+Xg.L  Xu.u.u.u.u.u.u.u.u.u.u.u.u.u.c.U i.XX7X6X6X6X7X7X7X4XE.<.x m.u.u.u.u.u.u.u.u.u.u.u.u.u.u.u.u.u.u.u.u.u.u.u.u.u.u.u.",
"u.u.u.u.u.u.u.u.u.u.u.u.u.u.+Xg.L  Xu.u.u.u.u.u.u.u.u.u.u.u.u.u.c.J i.XX7X6X6X6X7X7X7X,XE.<.x m.u.u.u.u.u.u.u.u.u.u.u.u.u.u.u.u.u.u.u.u.u.u.u.u.u.u.u.",
"u.u.u.u.u.u.u.u.u.u.u.u.u.u.+Xg.L  Xu.u.u.u.u.u.u.u.u.u.u.u.u.u.c.P #.OX7X7X7X7X6X6X6X<XE.i.b m.u.u.u.u.u.u.u.u.u.u.u.u.u.u.u.u.u.u.u.u.u.u.u.u.u.u.u.",
"u.u.u.u.u.u.u.u.u.u.u.u.u.u.+Xg.P _.u.u.u.u.u.u.u.u.u.u.u.u.u.u.c.J @.OX=X=X1X=X,X,X1X,XW.@.b m.u.u.u.u.u.u.u.u.u.u.u.u.u.u.u.u.u.u.u.u.u.u.u.u.u.u.u.",
"u.u.u.u.u.u.u.u.u.u.u.u.u.u.+Xd.P _.u.u.u.u.u.u.u.u.u.u.u.u.u.u.c.J @.R.%X%X%X%X%X%X%X&XQ.@.l m.u.u.u.u.u.u.u.u.u.u.u.u.u.u.u.u.u.u.u.u.u.u.u.u.u.u.u.",
"u.u.u.u.u.u.u.u.u.u.u.u.u.u.+Xh.P  Xu.u.u.u.u.u.u.u.u.u.u.u.u.u.c.P O.H.'.'.'.'.'.'.'.].A.{ l m.u.u.u.u.u.u.u.u.u.u.u.u.u.u.u.u.u.u.u.u.u.u.u.u.u.u.u.",
"u.u.u.u.u.u.u.u.u.u.u.u.u.u.+Xd.L _.u.u.u.u.u.u.u.u.u.u.u.u.u.u.c.D { F.`.`.`.`.`.^.`.^.V.[ l m.u.u.u.u.u.u.u.u.u.u.u.u.u.u.u.u.u.u.u.u.u.u.u.u.u.u.u.",
"u.u.u.u.u.u.u.u.u.u.u.u.u.u.+Xg.L _.u.u.u.u.u.u.u.u.u.u.u.u.u.u.c.L { F.`.`.`.`.^.`.^.^.V.[ l N.u.u.u.u.u.u.u.u.u.u.u.u.u.u.u.u.u.u.u.u.u.u.u.u.u.u.u.",
"u.u.u.u.u.u.u.u.u.u.u.u.u.u.+Xh.P _.u.u.u.u.u.u.u.u.u.u.u.u.u.u.m.T O.G.^.^.I.I.^.I.^.L.B.{ F M.u.u.u.u.u.u.u.u.u.u.u.u.u.u.u.u.u.u.u.u.u.u.u.u.u.u.u.",
"u.u.u.u.u.u.u.u.u.u.u.u.u.u.+Xg.L _.u.u.u.u.u.u.u.u.u.u.u.u.u.u.@X_.n.k.4.4.4.4.4.7.4.7.z.c.M.@Xu.u.u.u.u.u.u.u.u.u.u.u.u.u.u.u.u.u.u.u.u.u.u.u.u.u.u.",
"u.u.u.u.u.u.u.u.u.u.u.u.u.u.+Xl.@.oXu.u.u.u.u.u.u.u.u.u.u.u.u.u.u.u.#Xf.k x x x x k x F x.+Xu.u.u.u.u.u.u.u.u.u.u.u.u.u.u.u.u.u.u.u.u.u.u.u.u.u.u.u.u.",
"u.u.u.u.u.u.u.u.u.u.u.u.u.u.<XE.c.+Xu.u.u.u.u.u.u.u.u.u.u.u.u.u.u.u.4Xm.f.h.f.f.j.f.f.j. X4Xu.u.u.u.u.u.u.u.u.u.u.u.u.u.u.u.u.u.u.u.u.u.u.u.u.u.u.u.u.",
"u.u.u.u.u.u.u.u.u.u.u.u.u.u.u.<X@Xu.u.u.u.u.u.u.u.u.u.u.u.u.u.u.u.u.u.<X+X+X+X+X+X+X+X+X<Xu.u.u.u.u.u.u.u.u.u.u.u.u.u.u.u.u.u.u.u.u.u.u.u.u.u.u.u.u.u.",
"u.u.u.u.u.u.u.u.u.u.u.u.u.u.u.u.u.u.u.u.u.u.u.u.u.u.u.u.u.u.u.u.u.u.u.u.u.u.u.u.u.u.u.u.u.u.u.u.u.u.u.u.u.u.u.u.u.u.u.u.u.u.u.u.u.u.u.u.u.u.u.u.u.u.u.",
"u.u.u.u.u.u.u.u.u.u.u.u.u.u.u.u.u.u.u.u.u.u.u.u.u.u.u.u.u.u.u.u.u.u.u.u.u.u.u.u.u.u.u.u.u.u.u.u.u.u.u.u.u.u.u.u.u.u.u.u.u.u.u.u.u.u.u.u.u.u.u.u.u.u.u.",
"u.u.u.u.u.u.u.u.u.u.u.u.u.u.u.u.u.u.u.u.u.u.u.u.u.u.u.u.u.u.u.u.u.u.u.u.u.u.u.u.u.u.u.u.u.u.u.u.u.u.u.u.u.u.u.u.u.u.u.u.u.u.u.u.u.u.u.u.u.u.u.u.u.u.u.",
"u.u.u.u.u.u.u.u.u.u.u.u.u.u.u.u.u.u.u.u.u.u.u.u.u.u.u.u.u.u.u.u.u.u.u.u.u.u.u.u.u.u.u.u.u.u.u.u.u.u.u.u.u.u.u.u.u.u.u.u.u.u.u.u.u.u.u.u.u.u.u.u.u.u.u."
};
